# xmcd
# Copyright (C) 1995-1998 Ti Kan
#
# Track frame offsets:
#       150
#       21689
#       37691
#       55474
#       74091
#       89806
#       105094
#       118063
#       134374
#       151457
#
# Disc length: 2280 seconds
#
# Revision: 0
# Processed by: cddbd v1.5.2PL0 Copyright (c) Steve Scherf et al.
# Submitted via: CD-Transfer v1.0
#
DISCID=8e08e60a
DTITLE=Ti Ritu Piri Pip - 
DYEAR=15
DGENRE=
TTITLE0=Cyberjunkie Facebook
TTITLE1=Nemiran
TTITLE2=Polako
TTITLE3=Chuna
TTITLE4=Funk And Roll
TTITLE5=Transparentno
TTITLE6=Tobacco Blues
TTITLE7=Romeo
TTITLE8=Sexy Man
TTITLE9=Gram Pameti
EXTD=
EXTT0=
EXTT1=
EXTT2=
EXTT3=
EXTT4=
EXTT5=
EXTT6=
EXTT7=
EXTT8=
EXTT9=
PLAYORDER=
